<svg xmlns="http://www.w3.org/2000/svg" viewBox="0.54 3.36 47.64 16.82">
  <path d="M4.14 15.120000000000001 q0 -0.38 -0.02 -0.62 t-0.08 -0.42 t-0.16 -0.33 t-0.24 -0.33 q-0.3 -0.36 -0.6 -0.67 t-0.62 -0.62 t-0.65 -0.66 t-0.69 -0.79 q-0.4 -0.46 -0.47 -0.95 t-0.07 -1.19 l0 -2.46 q0 -2.72 2.56 -2.72 q1.38 0 1.94 0.67 t0.56 2.05 l0 3 l-1.42 0 l0 -2.8 q0 -0.62 -0.21 -1 t-0.83 -0.38 q-1.06 0 -1.06 1.18 l0 2.44 q0 0.52 0.07 0.76 t0.29 0.52 q0.6 0.76 1.23 1.34 t1.27 1.34 q0.22 0.26 0.36 0.52 t0.22 0.56 t0.11 0.68 t0.03 0.86 l0 2.36 q0 1.32 -0.59 2.02 t-1.97 0.7 q-1.34 0 -1.95 -0.7 t-0.61 -2.02 l0 -3.5 l1.46 0 l0 3.28 q0 0.64 0.23 1.04 t0.83 0.4 q0.58 0 0.83 -0.31 t0.25 -0.91 l0 -2.34 z M11.34 20 l-2.88 -8.1 l0 8.1 l-1.52 0 l0 -16.46 l1.52 0 l0 7.1 l2.78 -7.1 l1.64 0 l-3.12 7.5 l3.32 8.96 l-1.74 0 z M13.92 20 l0 -16.46 l4.36 0 l0 1.54 l-2.84 0 l0 5.78 l2 0 l0 1.52 l-2 0 l0 6.12 l2.94 0 l0 1.5 l-4.46 0 z M19.52 20 l0 -16.46 l1.52 0 l0 14.96 l2.94 0 l0 1.5 l-4.46 0 z M24.919999999999998 20 l0 -16.46 l4.36 0 l0 1.54 l-2.84 0 l0 5.78 l2 0 l0 1.52 l-2 0 l0 6.12 l2.94 0 l0 1.5 l-4.46 0 z M31.84 20 l0 -14.92 l-1.84 0 l0 -1.54 l5.18 0 l0 1.54 l-1.84 0 l0 14.92 l-1.5 0 z M36.019999999999996 6.16 q0 -2.8 2.58 -2.8 q2.6 0 2.6 2.8 l0 11.22 q0 2.8 -2.6 2.8 q-2.58 0 -2.58 -2.8 l0 -11.22 z M39.68 6.16 q0 -1.26 -1.08 -1.26 q-1.06 0 -1.06 1.26 l0 11.22 q0 1.3 1.06 1.3 q1.08 0 1.08 -1.3 l0 -11.22 z M46.66 20 l-2.84 -12.02 q0.02 1.88 0.02 3.65 l0 3.65 l0 4.72 l-1.32 0 l0 -16.46 l1.82 0 l2.52 12.06 q-0.02 -1.7 -0.02 -3.33 l0 -3.33 l0 -5.4 l1.34 0 l0 16.46 l-1.52 0 z" fill="#000000"/>
</svg>